<?xml version="1.0" encoding="UTF-8" standalone="no"?>
<!-- Created with Inkscape (http://www.inkscape.org/) -->

<svg
   version="1.1"
   id="svg914"
   xml:space="preserve"
   width="603.97174"
   height="292.51993"
   viewBox="0 0 603.97174 292.51993"
   sodipodi:docname="accelerationModelArchitecture.pdf"
   inkscape:version="1.1 (c68e22c387, 2021-05-23)"
   xmlns:inkscape="http://www.inkscape.org/namespaces/inkscape"
   xmlns:sodipodi="http://sodipodi.sourceforge.net/DTD/sodipodi-0.dtd"
   xmlns="http://www.w3.org/2000/svg"
   xmlns:svg="http://www.w3.org/2000/svg"><defs
     id="defs918"><clipPath
       clipPathUnits="userSpaceOnUse"
       id="clipPath930"><path
         d="M 0,0 H 453 V 220 H 0 Z"
         id="path928" /></clipPath></defs><sodipodi:namedview
     id="namedview916"
     pagecolor="#ffffff"
     bordercolor="#666666"
     borderopacity="1.0"
     inkscape:pageshadow="2"
     inkscape:pageopacity="0.0"
     inkscape:pagecheckerboard="0"
     showgrid="false"
     inkscape:zoom="1.3605911"
     inkscape:cx="189.25598"
     inkscape:cy="102.89646"
     inkscape:window-width="1920"
     inkscape:window-height="974"
     inkscape:window-x="-11"
     inkscape:window-y="-11"
     inkscape:window-maximized="1"
     inkscape:current-layer="g920" /><g
     id="g920"
     inkscape:groupmode="layer"
     inkscape:label="accelerationModelArchitecture"
     transform="matrix(1.3333333,0,0,1.3333333,0,8.6463318e-6)"><g
       id="g922"><g
         id="g924"><g
           id="g926" /><g
           id="g940"><g
             clip-path="url(#clipPath930)"
             id="g938"><g
               id="g936"><g
                 transform="scale(0.949937,1)"
                 id="g934"><path
                   d="M 195.963,45.953 H 294 c 10.305,0 18.599,8.297 18.599,18.598 V 199.73 c 0,10.305 -8.294,18.602 -18.599,18.602 h -98.037 c -10.305,0 -18.599,-8.297 -18.599,-18.602 V 64.551 c 0,-10.301 8.294,-18.598 18.599,-18.598 z"
                   style="fill:#ffb380;fill-opacity:1;fill-rule:evenodd;stroke:#000000;stroke-width:2.1173;stroke-linecap:butt;stroke-linejoin:miter;stroke-miterlimit:4;stroke-dasharray:none;stroke-opacity:1"
                   id="path932" /></g></g></g></g></g><text
         transform="matrix(0.93145422,0,0,1,173.63088,126.906)"
         style="font-variant:normal;font-weight:normal;font-size:20.7228px;font-family:Verdana;-inkscape-font-specification:Verdana;writing-mode:lr-tb;fill:#000000;fill-opacity:1;fill-rule:nonzero;stroke:none"
         id="text946"><tspan
           x="0 14.153688 24.929556 35.705425 48.035503 53.713558 66.04364 74.49855 86.932243 95.097038 100.77509 113.33312 126.42995"
           y="0"
           sodipodi:role="line"
           id="tspan942">Acceleration </tspan><tspan
           x="32.809452 50.258068 62.816097 75.726418 88.056496"
           y="25.903528"
           sodipodi:role="line"
           id="tspan944">Model</tspan></text><text
         transform="matrix(1,0,0,0.97627664,-0.142866,143.06514)"
         style="font-variant:normal;font-weight:normal;font-size:11.2534px;font-family:Verdana;-inkscape-font-specification:Verdana;writing-mode:lr-tb;fill:#000000;fill-opacity:1;fill-rule:nonzero;stroke:none"
         id="text950"><tspan
           x="0 7.6860867 13.537866 19.389645 26.08543 29.168867 35.864655 40.456047 47.208099 51.641949 54.725388 61.54496 68.65712 72.607071 79.122803 85.818588 92.829468 99.58152 102.66496 106.61491 113.74958 120.56915 123.65259 128.08644 134.83849 141.84937 148.54515"
           y="0"
           sodipodi:role="line"
           id="tspan948">Acceleration Pedal Voltages</tspan></text><g
         id="g952"
         transform="scale(0.949937,1)"><path
           d="M 72.583,128.332 H 175.221"
           style="fill:none;stroke:#000000;stroke-width:0.770722;stroke-linecap:butt;stroke-linejoin:miter;stroke-miterlimit:4;stroke-dasharray:none;stroke-opacity:1"
           id="path954" /></g><path
         d="m 158.621,124.91 8.801,3.406 -8.801,3.407 c 1.406,-2.008 1.399,-4.762 0,-6.813 z"
         style="fill:#000000;fill-opacity:1;fill-rule:evenodd;stroke:none"
         id="path956" /><text
         transform="matrix(1,0,0,0.97627664,303.44785,146.83317)"
         style="font-variant:normal;font-weight:normal;font-size:11.2534px;font-family:Verdana;-inkscape-font-specification:Verdana;writing-mode:lr-tb;fill:#000000;fill-opacity:1;fill-rule:nonzero;stroke:none"
         id="text960"><tspan
           x="0 7.6860867 13.537866 19.389645 26.08543 29.168867 35.864655 40.456047 47.208099 51.641949 54.725388 61.54496 68.65712 72.607071 79.122803 85.818588 92.829468 99.58152 102.66496 106.61491 113.13064 119.95022 125.80199 128.88544 133.31927 136.40271 143.22229"
           y="0"
           sodipodi:role="line"
           id="tspan958">Acceleration Pedal Position</tspan></text><g
         id="g962"
         transform="scale(0.949937,1)"><path
           d="M 312.599,128.332 H 415.237"
           style="fill:none;stroke:#000000;stroke-width:0.770722;stroke-linecap:butt;stroke-linejoin:miter;stroke-miterlimit:4;stroke-dasharray:none;stroke-opacity:1"
           id="path964" /></g><path
         d="m 386.621,124.91 8.801,3.406 -8.801,3.407 c 1.406,-2.008 1.399,-4.762 0,-6.813 z"
         style="fill:#000000;fill-opacity:1;fill-rule:evenodd;stroke:none"
         id="path966" /><text
         transform="translate(96.959732,22.793015)"
         style="font-variant:normal;font-weight:normal;font-size:30.0001px;font-family:Verdana;-inkscape-font-specification:Verdana;writing-mode:lr-tb;fill:#000000;fill-opacity:1;fill-rule:nonzero;stroke:none"
         id="text970"><tspan
           x="0 20.490042 36.090073 51.690105 69.540138 77.760155 95.610191 107.85022 125.85026 137.67027 145.89029 164.07033 183.03036 193.56039 218.82045 237.00049 255.69052 273.54056"
           y="0"
           sodipodi:role="line"
           id="tspan968">Acceleration Model</tspan></text></g></g></svg>
