<?xml version="1.0" encoding="UTF-8" standalone="no"?>
<!-- Created with Inkscape (http://www.inkscape.org/) -->

<svg
   width="317mm"
   height="210mm"
   viewBox="0 0 317 210"
   version="1.1"
   id="svg5"
   inkscape:version="1.1 (c68e22c387, 2021-05-23)"
   sodipodi:docname="carSystemModelOutline.svg"
   xmlns:inkscape="http://www.inkscape.org/namespaces/inkscape"
   xmlns:sodipodi="http://sodipodi.sourceforge.net/DTD/sodipodi-0.dtd"
   xmlns="http://www.w3.org/2000/svg"
   xmlns:svg="http://www.w3.org/2000/svg">
  <sodipodi:namedview
     id="namedview7"
     pagecolor="#d9d9d9"
     bordercolor="#666666"
     borderopacity="1.0"
     inkscape:pageshadow="2"
     inkscape:pageopacity="0"
     inkscape:pagecheckerboard="0"
     inkscape:document-units="mm"
     showgrid="false"
     inkscape:zoom="0.67081229"
     inkscape:cx="850.46146"
     inkscape:cy="336.15961"
     inkscape:window-width="1920"
     inkscape:window-height="991"
     inkscape:window-x="-9"
     inkscape:window-y="-9"
     inkscape:window-maximized="1"
     inkscape:current-layer="layer2"
     units="mm"
     width="298mm"
     inkscape:snap-text-baseline="true" />
  <defs
     id="defs2">
    <rect
       x="1001.7706"
       y="67.08285"
       width="81.99015"
       height="58.13847"
       id="rect12931" />
  </defs>
  <g
     inkscape:label="Layer 1"
     inkscape:groupmode="layer"
     id="layer1" />
  <g
     inkscape:groupmode="layer"
     id="layer2"
     inkscape:label="new Layer"
     style="display:inline">
    <path
       style="fill:none;stroke:#000000;stroke-width:0.264583px;stroke-linecap:butt;stroke-linejoin:miter;stroke-opacity:1"
       d="m 7.8414626,101.93649 7.7898384,-9.367537 8.57868,-5.719102 9.17032,-3.944209 41.51296,-7.395368 9.761953,-0.394427 5.81773,-3.549779 19.136976,-10.689653 11.29546,-5.43853 10.11014,-5.02017 9.20371,-2.091742 11.71381,-1.67339 17.7798,-1.533951 17.222,-0.488071 16.73392,-0.13945 15.5486,0.2789 12.96879,0.766971 3.27706,-1.882561 3.90458,-1.045871 1.88257,-0.34863 h 0.5578 l -0.48808,3.067892 0.5578,1.11559 5.22935,0.697251 25.17061,3.137612 3.9743,0.13945 -0.13945,1.81284 -1.04587,0.0697 -4.74128,2.23118 17.36145,9.064198 10.94677,7.181598 0.48807,0.418347 6.41468,0.557797 1.95229,5.57794 0.69724,11.295334 -0.41835,9.203654 0.97615,3.416517 2.99816,2.92844 0.2789,10.17986 -0.5578,2.78901 0.13945,6.06608 -1.04587,3.83488 -6.48439,3.20735 -22.033,3.55598 -2.16146,-1.18532 -0.8367,-3.27708 v -2.09175 l -1.04587,-0.55781 0.0697,6.48443 -1.04587,3.90461 -2.71926,5.99635 -2.44036,3.83486 -6.2055,4.811 -5.71742,2.44036 -6.62384,-0.34862 -7.53027,0.0697 -1.95229,-0.20917 -5.02018,-2.92844 -5.78714,-4.67155 -4.11376,-6.48442 -1.39449,-2.64954 0.20917,-4.4624 -5.0899,-0.41836 h 0.76697 l -0.34862,5.15966 -17.43117,0.76698 -29.42381,0.62752 -15.96695,-1.18533 -16.52481,0.27891 -9.97068,0.13945 -35.570622,-0.71363 -4.312084,0.78335 -1.603666,4.53213 -3.137612,4.46238 -4.18348,3.76513 -3.974307,2.78898 -6.344943,0.41835 h -5.299075 l -6.344948,-0.0697 -5.856874,-2.09174 -5.577983,-4.32293 -4.183483,-5.9266 -1.533941,-3.69543 -3.834851,0.13945 v 2.44037 l -1.25505,1.25506 -0.34862,-1.53395 -0.8367,-0.97616 -3.20733,-0.20917 -8.50641,-0.90642 -9.55228,-0.97616 -8.8550393,-1.46423 -1.7431091,-0.90642 -1.4642191,-3.55598 -0.13945,-2.16148 0.6275197,-1.04587 -0.4880697,-0.41835 1.6733892,-1.6734 v -1.46423 l 1.394489,-1.04588 -0.7669693,-8.99453 -1.0458697,-7.73948 -0.2091698,-2.71928 z"
       id="path345" />
    <text
       xml:space="preserve"
       style="font-style:normal;font-variant:normal;font-weight:normal;font-stretch:normal;font-size:6.35px;line-height:1.25;font-family:sans-serif;-inkscape-font-specification:'sans-serif, Normal';font-variant-ligatures:normal;font-variant-caps:normal;font-variant-numeric:normal;font-variant-east-asian:normal;stroke-width:0.264583"
       x="97.432121"
       y="76.123505"
       id="text2851"><tspan
         sodipodi:role="line"
         id="tspan2849"
         style="font-style:normal;font-variant:normal;font-weight:normal;font-stretch:normal;font-size:6.35px;font-family:sans-serif;-inkscape-font-specification:'sans-serif, Normal';font-variant-ligatures:normal;font-variant-caps:normal;font-variant-numeric:normal;font-variant-east-asian:normal;stroke-width:0.264583"
         x="97.432121"
         y="76.123505">Steering Subsystem</tspan></text>
    <text
       xml:space="preserve"
       style="font-style:normal;font-variant:normal;font-weight:normal;font-stretch:normal;font-size:6.35px;line-height:1.25;font-family:sans-serif;-inkscape-font-specification:'sans-serif, Normal';font-variant-ligatures:normal;font-variant-caps:normal;font-variant-numeric:normal;font-variant-east-asian:normal;stroke-width:0.264583"
       x="102.47136"
       y="127.50893"
       id="text3779"><tspan
         sodipodi:role="line"
         id="tspan3777"
         style="font-style:normal;font-variant:normal;font-weight:normal;font-stretch:normal;font-size:6.35px;font-family:sans-serif;-inkscape-font-specification:'sans-serif, Normal';font-variant-ligatures:normal;font-variant-caps:normal;font-variant-numeric:normal;font-variant-east-asian:normal;stroke-width:0.264583"
         x="102.47136"
         y="127.50893">Brake Subsystem</tspan></text>
    <text
       xml:space="preserve"
       style="font-style:normal;font-variant:normal;font-weight:normal;font-stretch:normal;font-size:6.35px;line-height:1.25;font-family:sans-serif;-inkscape-font-specification:'sans-serif, Normal';font-variant-ligatures:normal;font-variant-caps:normal;font-variant-numeric:normal;font-variant-east-asian:normal;stroke-width:0.264583"
       x="130.95071"
       y="98.845642"
       id="text4509"><tspan
         sodipodi:role="line"
         id="tspan4507"
         style="font-style:normal;font-variant:normal;font-weight:normal;font-stretch:normal;font-size:6.35px;font-family:sans-serif;-inkscape-font-specification:'sans-serif, Normal';font-variant-ligatures:normal;font-variant-caps:normal;font-variant-numeric:normal;font-variant-east-asian:normal;stroke-width:0.264583"
         x="130.95071"
         y="98.845642">Shift Subsystem</tspan></text>
    <text
       xml:space="preserve"
       style="font-style:normal;font-variant:normal;font-weight:normal;font-stretch:normal;font-size:6.35px;line-height:1.25;font-family:sans-serif;-inkscape-font-specification:'sans-serif, Normal';font-variant-ligatures:normal;font-variant-caps:normal;font-variant-numeric:normal;font-variant-east-asian:normal;stroke-width:0.264583"
       x="22.087648"
       y="111.2271"
       id="text5275"><tspan
         sodipodi:role="line"
         id="tspan5273"
         style="font-style:normal;font-variant:normal;font-weight:normal;font-stretch:normal;font-size:6.35px;font-family:sans-serif;-inkscape-font-specification:'sans-serif, Normal';font-variant-ligatures:normal;font-variant-caps:normal;font-variant-numeric:normal;font-variant-east-asian:normal;stroke-width:0.264583"
         x="22.087648"
         y="111.2271">Speed Subsystem</tspan></text>
    <text
       xml:space="preserve"
       style="font-style:normal;font-variant:normal;font-weight:normal;font-stretch:normal;font-size:6.35px;line-height:1.25;font-family:sans-serif;-inkscape-font-specification:'sans-serif, Normal';font-variant-ligatures:normal;font-variant-caps:normal;font-variant-numeric:normal;font-variant-east-asian:normal;stroke-width:0.264583"
       x="201.08916"
       y="111.76608"
       id="text5675"><tspan
         sodipodi:role="line"
         id="tspan5673"
         style="font-style:normal;font-variant:normal;font-weight:normal;font-stretch:normal;font-size:6.35px;font-family:sans-serif;-inkscape-font-specification:'sans-serif, Normal';font-variant-ligatures:normal;font-variant-caps:normal;font-variant-numeric:normal;font-variant-east-asian:normal;stroke-width:0.264583"
         x="201.08916"
         y="111.76608">Speed Control Subsystem </tspan></text>
    <text
       xml:space="preserve"
       style="font-style:normal;font-variant:normal;font-weight:normal;font-stretch:normal;font-size:6.35px;line-height:1.25;font-family:sans-serif;-inkscape-font-specification:'sans-serif, Normal';font-variant-ligatures:normal;font-variant-caps:normal;font-variant-numeric:normal;font-variant-east-asian:normal;stroke-width:0.264583"
       x="202.26265"
       y="76.517929"
       id="text10461"><tspan
         sodipodi:role="line"
         id="tspan10459"
         style="font-style:normal;font-variant:normal;font-weight:normal;font-stretch:normal;font-size:6.35px;font-family:sans-serif;-inkscape-font-specification:'sans-serif, Normal';font-variant-ligatures:normal;font-variant-caps:normal;font-variant-numeric:normal;font-variant-east-asian:normal;stroke-width:0.264583"
         x="202.26265"
         y="76.517929">Acceleration Subsystem</tspan></text>
  </g>
</svg>
