<?xml version="1.0" encoding="UTF-8" standalone="no"?>
<!-- Created with Inkscape (http://www.inkscape.org/) -->

<svg
   version="1.1"
   id="svg4924"
   xml:space="preserve"
   width="482.02652"
   height="292.71524"
   viewBox="0 0 482.02652 292.71524"
   sodipodi:docname="shiftModelArchitecture.pdf"
   inkscape:version="1.1 (c68e22c387, 2021-05-23)"
   xmlns:inkscape="http://www.inkscape.org/namespaces/inkscape"
   xmlns:sodipodi="http://sodipodi.sourceforge.net/DTD/sodipodi-0.dtd"
   xmlns="http://www.w3.org/2000/svg"
   xmlns:svg="http://www.w3.org/2000/svg"><defs
     id="defs4928"><clipPath
       clipPathUnits="userSpaceOnUse"
       id="clipPath4940"><path
         d="M 0,0 H 362 V 220 H 0 Z"
         id="path4938" /></clipPath></defs><sodipodi:namedview
     id="namedview4926"
     pagecolor="#ffffff"
     bordercolor="#666666"
     borderopacity="1.0"
     inkscape:pageshadow="2"
     inkscape:pageopacity="0.0"
     inkscape:pagecheckerboard="0"
     showgrid="false"
     inkscape:zoom="2.7193664"
     inkscape:cx="241.04879"
     inkscape:cy="146.35762"
     inkscape:window-width="1920"
     inkscape:window-height="974"
     inkscape:window-x="-11"
     inkscape:window-y="-11"
     inkscape:window-maximized="1"
     inkscape:current-layer="g4930" /><g
     id="g4930"
     inkscape:groupmode="layer"
     inkscape:label="shiftModelArchitecture"
     transform="matrix(1.3333333,0,0,1.3333333,0,6.6512146e-6)"><g
       id="g4932"><g
         id="g4934"><g
           id="g4936" /><g
           id="g4950"><g
             clip-path="url(#clipPath4940)"
             id="g4948"><g
               id="g4946"><g
                 transform="scale(0.949937,1)"
                 id="g4944"><path
                   d="m 143.714,46.102 h 98.037 c 10.305,0 18.599,8.293 18.599,18.597 v 135.18 c 0,10.305 -8.294,18.598 -18.599,18.598 h -98.037 c -10.305,0 -18.599,-8.293 -18.599,-18.598 V 64.699 c 0,-10.304 8.294,-18.597 18.599,-18.597 z"
                   style="fill:#ffb380;fill-opacity:1;fill-rule:evenodd;stroke:#000000;stroke-width:2.1173;stroke-linecap:butt;stroke-linejoin:miter;stroke-miterlimit:4;stroke-dasharray:none;stroke-opacity:1"
                   id="path4942" /></g></g></g></g></g><text
         transform="matrix(0.93145422,0,0,1,128.9892,140.05485)"
         style="font-variant:normal;font-weight:normal;font-size:20.7228px;font-family:Verdana;-inkscape-font-specification:Verdana;writing-mode:lr-tb;fill:#000000;fill-opacity:1;fill-rule:nonzero;stroke:none"
         id="text4954"><tspan
           x="0 14.153688 27.250513 32.928566 40.202278 48.367069 55.640781 73.089394 85.64743 98.557747 110.88783"
           y="0"
           sodipodi:role="line"
           id="tspan4952">Shift Model</tspan></text><text
         transform="matrix(1,0,0,0.97627664,-1.098967,144.8265)"
         style="font-variant:normal;font-weight:normal;font-size:11.2534px;font-family:Verdana;-inkscape-font-specification:Verdana;writing-mode:lr-tb;fill:#000000;fill-opacity:1;fill-rule:nonzero;stroke:none"
         id="text4958"><tspan
           x="0 8.6651344 15.36092 21.212698 24.296137 29.090094 35.785877 42.796761 46.746712 54.432796 61.54496 64.628395 68.578346 73.012192 79.707977 84.501938 88.451889 97.173294 103.86908 110.62113"
           y="0"
           sodipodi:role="line"
           id="tspan4956">Desired Shifter Gear</tspan></text><g
         id="g4960"
         transform="scale(0.949937,1)"><path
           d="M 21.913,128.477 H 124.552"
           style="fill:none;stroke:#000000;stroke-width:0.770722;stroke-linecap:butt;stroke-linejoin:miter;stroke-miterlimit:4;stroke-dasharray:none;stroke-opacity:1"
           id="path4962" /></g><path
         d="m 110.488,125.059 8.801,3.406 -8.801,3.406 c 1.407,-2.012 1.399,-4.762 0,-6.812 z"
         style="fill:#000000;fill-opacity:1;fill-rule:evenodd;stroke:none"
         id="path4964" /><text
         transform="matrix(1,0,0,0.97627664,253.81565,145.47966)"
         style="font-variant:normal;font-weight:normal;font-size:11.2534px;font-family:Verdana;-inkscape-font-specification:Verdana;writing-mode:lr-tb;fill:#000000;fill-opacity:1;fill-rule:nonzero;stroke:none"
         id="text4968"><tspan
           x="0 7.6860867 13.537866 17.971714 25.083876 31.835928 34.919365 38.869316 46.555401 53.667564 56.751003 60.700954 65.134804 71.830589 76.624542 80.574493 89.295898 95.991684 102.74374"
           y="0"
           sodipodi:role="line"
           id="tspan4966">Actual Shifter Gear</tspan></text><g
         id="g4970"
         transform="scale(0.949937,1)"><path
           d="M 260.35,128.477 H 362.989"
           style="fill:none;stroke:#000000;stroke-width:0.770722;stroke-linecap:butt;stroke-linejoin:miter;stroke-miterlimit:4;stroke-dasharray:none;stroke-opacity:1"
           id="path4972" /></g><path
         d="m 336.988,125.059 8.801,3.406 -8.801,3.406 c 1.407,-2.012 1.399,-4.762 0,-6.812 z"
         style="fill:#000000;fill-opacity:1;fill-rule:evenodd;stroke:none"
         id="path4974" /><text
         transform="translate(98.465335,22.9395)"
         style="font-variant:normal;font-weight:normal;font-size:30.0001px;font-family:Verdana;-inkscape-font-specification:Verdana;writing-mode:lr-tb;fill:#000000;fill-opacity:1;fill-rule:nonzero;stroke:none"
         id="text4978"><tspan
           x="0 20.490042 39.450081 47.670097 58.200119 70.020142 80.550163 105.81022 123.99025 142.68028 160.53032"
           y="0"
           sodipodi:role="line"
           id="tspan4976">Shift Model</tspan></text></g></g></svg>
