<?xml version="1.0" encoding="UTF-8" standalone="no"?>
<!-- Created with Inkscape (http://www.inkscape.org/) -->

<svg
   version="1.1"
   id="svg5305"
   xml:space="preserve"
   width="482.88986"
   height="287.49588"
   viewBox="0 0 482.88986 287.49588"
   sodipodi:docname="speedControlModelArchitecture.svg"
   inkscape:version="1.1 (c68e22c387, 2021-05-23)"
   xmlns:inkscape="http://www.inkscape.org/namespaces/inkscape"
   xmlns:sodipodi="http://sodipodi.sourceforge.net/DTD/sodipodi-0.dtd"
   xmlns="http://www.w3.org/2000/svg"
   xmlns:svg="http://www.w3.org/2000/svg"><defs
     id="defs5309"><clipPath
       clipPathUnits="userSpaceOnUse"
       id="clipPath5321"><path
         d="M 0,0 H 363 V 216 H 0 Z"
         id="path5319" /></clipPath></defs><sodipodi:namedview
     id="namedview5307"
     pagecolor="#ffffff"
     bordercolor="#666666"
     borderopacity="1.0"
     inkscape:pageshadow="2"
     inkscape:pageopacity="0.0"
     inkscape:pagecheckerboard="0"
     showgrid="false"
     inkscape:zoom="2.7687353"
     inkscape:cx="283.70354"
     inkscape:cy="139.59442"
     inkscape:window-width="1920"
     inkscape:window-height="1001"
     inkscape:window-x="-9"
     inkscape:window-y="-9"
     inkscape:window-maximized="1"
     inkscape:current-layer="g5313" /><g
     id="g5311"
     inkscape:groupmode="layer"
     inkscape:label="speedControlModelArchitecture"
     transform="matrix(1.3333333,0,0,1.3333333,0,7.8540634e-6)"><g
       id="g5313"><g
         id="g5315"><g
           id="g5317" /><g
           id="g5331"><g
             clip-path="url(#clipPath5321)"
             id="g5329"><g
               id="g5327"><g
                 transform="scale(0.949937,1)"
                 id="g5325"><path
                   d="m 160.956,42.184 h 98.037 c 10.305,0 18.599,8.296 18.599,18.601 v 135.18 c 0,10.305 -8.294,18.597 -18.599,18.597 h -98.037 c -10.305,0 -18.599,-8.292 -18.599,-18.597 V 60.785 c 0,-10.305 8.294,-18.601 18.599,-18.601 z"
                   style="fill:#ffb380;fill-opacity:1;fill-rule:evenodd;stroke:#000000;stroke-width:2.1173;stroke-linecap:butt;stroke-linejoin:miter;stroke-miterlimit:4;stroke-dasharray:none;stroke-opacity:1"
                   id="path5323" /></g></g></g></g></g><text
         transform="matrix(0.88672434,0,0,1,163.78761,106.14679)"
         style="font-variant:normal;font-weight:normal;font-size:25.3252px;font-family:Verdana;-inkscape-font-specification:Verdana;writing-mode:lr-tb;fill:#000000;fill-opacity:1;fill-rule:nonzero;stroke:none"
         id="text5339"><tspan
           x="0 17.297083 33.074654 48.143124 63.211594 78.989166"
           y="0"
           sodipodi:role="line"
           id="tspan5333">Speed </tspan><tspan
           x="-6.5724101 11.104549 26.451595 42.457092 52.435207 63.223724 78.57077 85.509857"
           y="31.656446"
           sodipodi:role="line"
           id="tspan5335">Control </tspan><tspan
           x="2.2567754 23.580557 38.927601 54.705177 69.773643"
           y="63.312893"
           sodipodi:role="line"
           id="tspan5337">Model</tspan></text><text
         transform="matrix(1,0,0,0.97627664,16.901033,141.98855)"
         style="font-variant:normal;font-weight:normal;font-size:14.1691px;font-family:Verdana;-inkscape-font-specification:Verdana;writing-mode:lr-tb;white-space:pre;inline-size:124.607;fill:#000000;fill-opacity:1;fill-rule:nonzero;stroke:none"
         id="text5343"
         xml:space="preserve"><tspan
           x="0"
           y="0"
           id="tspan55909">Desired Vehicle </tspan><tspan
           x="0"
           y="17.711375"
           id="tspan55911">Speed</tspan></text><g
         id="g5345"
         transform="scale(0.949937,1)"><path
           d="M 39.156,124.562 H 141.794"
           style="fill:none;stroke:#000000;stroke-width:0.770722;stroke-linecap:butt;stroke-linejoin:miter;stroke-miterlimit:4;stroke-dasharray:none;stroke-opacity:1"
           id="path5347" /></g><path
         d="m 126.867,121.145 8.801,3.406 -8.801,3.406 c 1.406,-2.012 1.399,-4.762 0,-6.812 z"
         style="fill:#000000;fill-opacity:1;fill-rule:evenodd;stroke:none"
         id="path5349" /><text
         transform="matrix(1,0,0,0.97627664,270.19419,141.98918)"
         style="font-variant:normal;font-weight:normal;font-size:14.1691px;font-family:Verdana;-inkscape-font-specification:Verdana;writing-mode:lr-tb;white-space:pre;inline-size:81.2308;fill:#000000;fill-opacity:1;fill-rule:nonzero;stroke:none"
         id="text5353"
         xml:space="preserve"><tspan
           x="0"
           y="0"
           id="tspan55913">Vehicle </tspan><tspan
           x="0"
           y="17.711375"
           id="tspan55915">Speed</tspan></text><g
         id="g5355"
         transform="scale(0.949937,1)"><path
           d="M 277.592,124.562 H 380.231"
           style="fill:none;stroke:#000000;stroke-width:0.770722;stroke-linecap:butt;stroke-linejoin:miter;stroke-miterlimit:4;stroke-dasharray:none;stroke-opacity:1"
           id="path5357" /></g><path
         d="m 353.367,121.145 8.801,3.406 -8.801,3.406 c 1.406,-2.012 1.399,-4.762 0,-6.812 z"
         style="fill:#000000;fill-opacity:1;fill-rule:evenodd;stroke:none"
         id="path5359" /><text
         transform="translate(41.097778,22.793015)"
         style="font-variant:normal;font-weight:normal;font-size:30.0001px;font-family:Verdana;-inkscape-font-specification:Verdana;writing-mode:lr-tb;fill:#000000;fill-opacity:1;fill-rule:nonzero;stroke:none"
         id="text5363"><tspan
           x="0 20.490042 39.18008 57.030117 74.88015 93.57019 104.10021 125.04025 143.22029 162.18033 174.00035 186.78038 204.96042 213.18044 223.71045 248.9705 267.15054 285.84058 303.69061"
           y="0"
           sodipodi:role="line"
           id="tspan5361">Speed Control Model</tspan></text></g></g></svg>
